<svg version="1.1" xmlns="http://www.w3.org/2000/svg" viewBox="0 0 242.3965251288164 208.85050169720625" width="242.3965251288164" height="208.85050169720625"><!-- svg-source:excalidraw --><metadata></metadata><defs><style class="style-fonts">
      </style></defs><rect x="0" y="0" width="242.3965251288164" height="208.85050169720625" fill="#121212"></rect><g stroke-linecap="round" transform="translate(10 35.5162736692082) rotate(0 111.1982625644082 81.66711401399903)"><path d="M21.24 34.37 C21.24 34.37, 21.24 34.37, 21.24 34.37 M21.24 34.37 C21.24 34.37, 21.24 34.37, 21.24 34.37 M9.83 53.59 C16.12 46.75, 24.3 37.64, 34.76 24.91 M9.83 53.59 C18.02 44.02, 26.1 33.57, 34.76 24.91 M4.32 66.03 C14.18 55.77, 21.87 45.76, 47.62 16.22 M4.32 66.03 C16.83 53.3, 27.6 39.11, 47.62 16.22 M4.06 72.43 C15.3 58.81, 30.59 42.72, 56.54 12.05 M4.06 72.43 C14.55 60.04, 25.95 47.63, 56.54 12.05 M3.79 78.82 C23.66 55.21, 43.32 32.94, 63.5 10.15 M3.79 78.82 C27.19 53.79, 48.7 27.91, 63.5 10.15 M2.88 85.98 C21.53 67.26, 36.26 47.17, 71.11 7.49 M2.88 85.98 C29.64 55.69, 55.31 23.82, 71.11 7.49 M2.62 92.37 C21.8 72.31, 39.5 50.34, 78.06 5.58 M2.62 92.37 C20.39 71.18, 39.81 49.21, 78.06 5.58 M3.67 97.26 C21.61 78.18, 39.19 54.23, 85.02 3.68 M3.67 97.26 C31.04 63.34, 58.88 31.93, 85.02 3.68 M5.37 101.4 C38.22 65.38, 66.7 29.54, 91.97 1.77 M5.37 101.4 C29.88 72.64, 55.53 43.61, 91.97 1.77 M7.74 104.78 C35.62 72.53, 65.74 39.62, 97.62 1.38 M7.74 104.78 C31.85 75.67, 57.47 47.91, 97.62 1.38 M9.44 108.91 C30.28 84.67, 54.54 56.94, 103.26 0.99 M9.44 108.91 C39.15 73.7, 70.49 39.34, 103.26 0.99 M11.15 113.04 C40.02 77.26, 70.43 43.02, 108.25 1.35 M11.15 113.04 C37.12 82.88, 64.65 51.86, 108.25 1.35 M13.51 116.42 C46.93 79.14, 80.96 42.31, 113.23 1.71 M13.51 116.42 C34.25 92.45, 55.79 69.75, 113.23 1.71 M15.22 120.56 C37.58 93.88, 61.08 67.94, 118.88 1.31 M15.22 120.56 C38.41 95.96, 59.38 71.66, 118.88 1.31 M16.93 124.69 C43.1 92.47, 72.15 62.64, 123.86 1.67 M16.93 124.69 C43.06 97.29, 67.36 69.19, 123.86 1.67 M19.94 127.31 C44.88 99.09, 68.1 70.03, 128.85 2.03 M19.94 127.31 C47.78 95.9, 75.79 65.86, 128.85 2.03 M22.96 129.94 C53.78 93, 87.39 57.67, 134.49 1.64 M22.96 129.94 C57.83 88.35, 92.21 48.49, 134.49 1.64 M26.64 131.81 C54.07 100.04, 79.53 69.63, 138.82 2.75 M26.64 131.81 C61.32 92.54, 95.6 52.33, 138.82 2.75 M29.66 134.43 C63.43 97.86, 96.06 56.9, 143.15 3.87 M29.66 134.43 C75.31 83.81, 118.42 33.74, 143.15 3.87 M32.68 137.06 C62.68 102.86, 95.16 65.69, 146.83 5.74 M32.68 137.06 C77.56 84.52, 121.2 33.56, 146.83 5.74 M36.35 138.93 C82.78 86.76, 128.38 34.21, 151.16 6.85 M36.35 138.93 C63.16 108.97, 90.32 79.71, 151.16 6.85 M39.37 141.55 C72.44 102.65, 104.33 66.22, 155.49 7.97 M39.37 141.55 C71.55 102.12, 105.55 64.31, 155.49 7.97 M42.39 144.17 C79.46 103.5, 118.19 59.26, 159.82 9.08 M42.39 144.17 C71.06 111.83, 99.22 80.12, 159.82 9.08 M45.41 146.8 C82.17 102.88, 117.08 61.85, 163.5 10.95 M45.41 146.8 C77.37 111, 107.78 76.5, 163.5 10.95 M49.08 148.67 C94.8 94.56, 141.39 41.55, 167.83 12.06 M49.08 148.67 C77.36 117.45, 105.92 84.91, 167.83 12.06 M53.41 149.78 C94.24 105.18, 135.64 58.16, 172.16 13.18 M53.41 149.78 C94.71 101.66, 136.76 55.4, 172.16 13.18 M57.74 150.9 C84.17 121.03, 107.55 91.08, 175.83 15.05 M57.74 150.9 C92.02 113.08, 126.41 74.58, 175.83 15.05 M61.42 152.77 C99.45 110.64, 131.69 72.53, 179.51 16.92 M61.42 152.77 C91.55 115.44, 124.39 79.25, 179.51 16.92 M65.75 153.88 C108.24 104.96, 150.83 53.3, 182.53 19.54 M65.75 153.88 C95.43 120.07, 124.31 85.56, 182.53 19.54 M69.42 155.75 C94.31 129.61, 115.39 100.62, 185.55 22.17 M69.42 155.75 C105.16 113.68, 141.36 71.38, 185.55 22.17 M73.76 156.87 C104.19 121.08, 136.79 88.42, 189.22 24.04 M73.76 156.87 C105.09 120.34, 136.13 85.02, 189.22 24.04 M78.09 157.98 C103.14 131.75, 125.01 102.95, 192.24 26.66 M78.09 157.98 C109.29 121.47, 142.62 83.41, 192.24 26.66 M81.76 159.85 C122.53 115.75, 161.51 69.07, 195.26 29.29 M81.76 159.85 C111.49 125.9, 141.85 90.8, 195.26 29.29 M86.09 160.96 C126.75 112.79, 170.87 64.06, 198.28 31.91 M86.09 160.96 C117.02 123.85, 151.37 86.27, 198.28 31.91 M91.08 161.32 C121.49 129.43, 148.93 95.42, 201.3 34.53 M91.08 161.32 C111.7 134.65, 134.67 109.49, 201.3 34.53 M96.07 161.68 C130 124.12, 163.49 84.18, 204.32 37.16 M96.07 161.68 C117.79 134.12, 140.79 108.26, 204.32 37.16 M101.71 161.29 C134.26 125.19, 162.74 86.81, 207.33 39.78 M101.71 161.29 C132.07 125.43, 161.1 90.79, 207.33 39.78 M106.7 161.65 C139.7 121.85, 175.17 84.07, 209.04 43.92 M106.7 161.65 C127.78 136.99, 148.84 113.45, 209.04 43.92 M111.68 162.01 C146.11 121.76, 181.39 82.05, 210.75 48.05 M111.68 162.01 C144.89 125.46, 179.1 87.52, 210.75 48.05 M116.67 162.37 C141.45 132.02, 167.19 104.08, 213.11 51.43 M116.67 162.37 C135.77 137.99, 157.18 114.19, 213.11 51.43 M122.31 161.98 C157.25 123.66, 189.08 82.21, 214.82 55.56 M122.31 161.98 C158.11 121.38, 195.25 77.07, 214.82 55.56 M127.3 162.34 C151.98 134.98, 177.75 104.18, 216.52 59.7 M127.3 162.34 C149.79 136.29, 172.44 110.79, 216.52 59.7 M133.6 161.19 C156.85 134.73, 180.04 110.2, 218.23 63.83 M133.6 161.19 C163.33 128.05, 193.76 91.6, 218.23 63.83 M140.55 159.28 C162.65 136, 182.72 110.42, 220.59 67.21 M140.55 159.28 C164.84 131.43, 190.1 103.09, 220.59 67.21 M147.51 157.38 C164.84 139.56, 180.25 117.73, 220.99 72.85 M147.51 157.38 C169.8 128.92, 194.76 102.43, 220.99 72.85 M154.47 155.47 C169.04 138.99, 184.51 123.24, 220.73 79.25 M154.47 155.47 C172.22 136.13, 190.37 114.45, 220.73 79.25 M162.08 152.82 C174.56 137.38, 189.6 121.39, 220.47 85.65 M162.08 152.82 C175.84 137.84, 188.58 122.2, 220.47 85.65 M169.03 150.91 C181.88 136.75, 194.82 120.59, 220.2 92.04 M169.03 150.91 C185.94 130.25, 205.89 109.88, 220.2 92.04 M179.27 145.23 C193.73 128.89, 205.21 116.2, 219.94 98.44 M179.27 145.23 C188.96 133.79, 200.08 123.22, 219.94 98.44 M190.81 138.05 C193.99 132.47, 199.31 126.32, 209.84 116.16 M190.81 138.05 C198.06 131.57, 203.87 123.29, 209.84 116.16 M17.17 125.05 C17.17 125.05, 17.17 125.05, 17.17 125.05 M17.17 125.05 C17.17 125.05, 17.17 125.05, 17.17 125.05 M49.23 147.61 C41.48 142.98, 34.66 134.27, 13.01 116.12 M49.23 147.61 C36.27 136.56, 25.82 126.09, 13.01 116.12 M59.4 151.16 C41.91 133.27, 22.24 119.34, 8.08 106.54 M59.4 151.16 C46.44 139.22, 31.89 128.49, 8.08 106.54 M69.58 154.7 C49.42 134.76, 26.3 119.85, 3.16 96.96 M69.58 154.7 C43.71 131.52, 16.89 109.8, 3.16 96.96 M79.75 158.24 C60.24 139.7, 37.06 122.74, 2.77 91.32 M79.75 158.24 C52.09 135.19, 25.54 110.3, 2.77 91.32 M87.65 159.81 C58.44 132.57, 25.46 104.04, 3.13 86.33 M87.65 159.81 C67.88 142.94, 46.48 124.39, 3.13 86.33 M94.05 160.07 C63.1 132.54, 28.26 105.47, 3.49 81.35 M94.05 160.07 C67.96 138.63, 42.11 115.3, 3.49 81.35 M100.45 160.34 C67.27 133.69, 38.15 104.09, 3.85 76.36 M100.45 160.34 C62.3 126.87, 23.94 93.44, 3.85 76.36 M106.85 160.6 C65.63 127.4, 27.11 92.94, 4.21 71.37 M106.85 160.6 C66.34 126.5, 25.92 91.25, 4.21 71.37 M113.24 160.86 C72.59 123.67, 28.35 84.94, 4.57 66.39 M113.24 160.86 C75.7 127.49, 38.38 95.46, 4.57 66.39 M119.64 161.12 C89.53 136.69, 62.38 110.16, 4.93 61.4 M119.64 161.12 C92.57 139.28, 66.7 115.92, 4.93 61.4 M126.04 161.38 C78.43 122.48, 35.51 81.06, 7.55 58.38 M126.04 161.38 C96.76 135.42, 67.54 109.77, 7.55 58.38 M131.68 160.99 C86.83 122.02, 43.64 85.6, 9.42 54.71 M131.68 160.99 C89.21 125.15, 46.72 87.95, 9.42 54.71 M136.57 159.94 C88.08 117.81, 41.75 77.02, 11.29 51.03 M136.57 159.94 C105.6 135.43, 76.58 109.63, 11.29 51.03 M141.46 158.89 C108.94 130.41, 75.1 103.68, 13.16 47.36 M141.46 158.89 C96.76 118.82, 50.92 79.38, 13.16 47.36 M145.59 157.18 C113.95 129.46, 80.09 100.72, 15.78 44.34 M145.59 157.18 C102.02 120.08, 58.66 83.49, 15.78 44.34 M150.48 156.13 C124.48 130.35, 95.1 106.34, 17.65 40.66 M150.48 156.13 C114.66 124.98, 79.35 94.27, 17.65 40.66 M155.37 155.08 C115.41 118.73, 76.02 82.43, 19.52 36.99 M155.37 155.08 C116.73 121.73, 79.56 90.48, 19.52 36.99 M159.5 153.37 C130 124.63, 99.33 99.15, 22.15 33.97 M159.5 153.37 C117.01 116.11, 71.91 77.83, 22.15 33.97 M164.39 152.32 C129.56 121.77, 91.28 87.75, 25.53 31.61 M164.39 152.32 C116.41 111.5, 70.3 70.39, 25.53 31.61 M169.28 151.27 C133.7 122.24, 100.25 93.5, 28.91 29.24 M169.28 151.27 C117.23 108.88, 67.24 64.27, 28.91 29.24 M172.66 148.91 C125.44 110.01, 79.12 68.85, 32.28 26.88 M172.66 148.91 C125.53 107.72, 78.88 65.24, 32.28 26.88 M176.04 146.54 C134.75 109.67, 94.15 73.39, 35.66 24.52 M176.04 146.54 C136.29 112.25, 95.42 78.15, 35.66 24.52 M179.42 144.18 C141.35 109.84, 104 75.96, 39.04 22.15 M179.42 144.18 C128.01 100.89, 76.17 56.37, 39.04 22.15 M182.8 141.82 C130.19 92.41, 74.08 47.61, 42.42 19.79 M182.8 141.82 C130.07 95.19, 75.44 48, 42.42 19.79 M186.18 139.46 C139.53 97.98, 91.9 55.12, 45.8 17.43 M186.18 139.46 C149.22 106.23, 109.72 74.06, 45.8 17.43 M189.55 137.09 C159.79 107.69, 128.72 80.43, 49.18 15.07 M189.55 137.09 C135.83 89.36, 80.74 41.38, 49.18 15.07 M192.93 134.73 C143.69 89.9, 96.91 46.91, 52.56 12.7 M192.93 134.73 C162.85 109.55, 133.73 83.34, 52.56 12.7 M197.07 133.02 C164.16 104.69, 127.33 73.22, 56.69 11 M197.07 133.02 C161.58 103.1, 129.4 72.5, 56.69 11 M200.45 130.66 C171.05 103.35, 144.95 80.97, 61.58 9.95 M200.45 130.66 C162.11 98.32, 124.3 65.82, 61.58 9.95 M203.07 127.64 C174.78 104.64, 147.03 79.93, 65.71 8.24 M203.07 127.64 C160.09 92.18, 116.98 55.3, 65.71 8.24 M204.94 123.97 C177.34 101.02, 146.43 73.71, 70.6 7.19 M204.94 123.97 C169.97 95.05, 137.21 64.95, 70.6 7.19 M206.81 120.29 C178.44 92.54, 147.54 67.74, 74.74 5.48 M206.81 120.29 C156.45 75.8, 104.95 30.27, 74.74 5.48 M209.43 117.27 C169.72 85.63, 129.33 48.88, 79.62 4.43 M209.43 117.27 C172.44 84.35, 134.44 53.44, 79.62 4.43 M211.3 113.6 C170.02 75.67, 129.35 41.36, 84.51 3.38 M211.3 113.6 C175.55 82.45, 139.14 50.53, 84.51 3.38 M213.17 109.92 C184.9 83.31, 154.73 54.39, 88.65 1.67 M213.17 109.92 C187.36 87.36, 160.71 64.49, 88.65 1.67 M215.8 106.9 C184.29 82.18, 152.76 53.84, 93.53 0.62 M215.8 106.9 C187.52 82.03, 158.74 55.93, 93.53 0.62 M217.67 103.23 C189.94 79.06, 164.09 58.39, 99.93 0.88 M217.67 103.23 C170.32 63.12, 124.28 21.55, 99.93 0.88 M219.54 99.56 C185.58 69.65, 152.68 41.19, 106.33 1.15 M219.54 99.56 C188.41 71.15, 155.07 41.69, 106.33 1.15 M219.9 94.57 C190.1 70.15, 163.12 44.13, 111.97 0.75 M219.9 94.57 C183.2 61.28, 146.46 29.26, 111.97 0.75 M220.26 89.58 C195.95 68.52, 171.58 46.89, 118.37 1.01 M220.26 89.58 C185.11 58.7, 152.67 31.15, 118.37 1.01 M220.62 84.59 C201.8 67.85, 180.16 50.13, 124.77 1.27 M220.62 84.59 C196.15 62.58, 171.22 41.69, 124.77 1.27 M220.22 78.95 C198.2 61.42, 173.4 40.14, 131.17 1.54 M220.22 78.95 C196.99 59.18, 174.88 40.45, 131.17 1.54 M220.58 73.96 C190.39 49.23, 163.13 20.98, 136.81 1.14 M220.58 73.96 C197.27 53.39, 174.32 34.39, 136.81 1.14 M220.94 68.98 C191.68 42.39, 165.36 18.61, 146.23 4.03 M220.94 68.98 C193.07 43.97, 164.4 19.2, 146.23 4.03 M217.53 60.71 C195.55 42.44, 170.85 21.29, 155.64 6.91 M217.53 60.71 C201.71 47.27, 185.48 33.07, 155.64 6.91 M213.36 51.79 C200.55 41.81, 192.45 32.76, 165.06 9.8 M213.36 51.79 C201.19 40.55, 187.72 29.18, 165.06 9.8 M209.19 42.86 C200.95 37.79, 195.31 27.79, 175.23 13.34 M209.19 42.86 C196.42 31.4, 182.69 21.06, 175.23 13.34" stroke="#fa6969" stroke-width="0.5" fill="none"></path><path d="M93.44 0.84 C106.23 -2.07, 122.17 -0.61, 136.08 1.68 C149.98 3.98, 165.09 8.42, 176.87 14.59 C188.65 20.77, 199.46 29.78, 206.75 38.71 C214.04 47.64, 218.48 57.94, 220.61 68.15 C222.75 78.37, 222.86 89.62, 219.55 100.01 C216.25 110.39, 209.18 121.97, 200.79 130.45 C192.4 138.94, 181.25 145.63, 169.19 150.93 C157.12 156.23, 142.32 160.66, 128.4 162.27 C114.49 163.88, 99.34 163.13, 85.7 160.59 C72.07 158.06, 57.99 152.95, 46.6 147.06 C35.22 141.17, 24.86 134.04, 17.39 125.24 C9.93 116.43, 4.06 104.51, 1.82 94.24 C-0.42 83.98, 0.69 73.66, 3.94 63.66 C7.2 53.65, 13.22 42.74, 21.36 34.23 C29.5 25.73, 37.92 18.48, 52.78 12.63 C67.65 6.78, 98.39 0.92, 110.56 -0.87 C122.72 -2.65, 125.73 0.5, 125.79 1.94 M97.54 1.65 C110.89 -0.86, 127.17 -0.64, 140.93 2.17 C154.7 4.98, 169.1 12.17, 180.16 18.53 C191.22 24.89, 200.5 31.33, 207.27 40.35 C214.05 49.37, 218.76 62.24, 220.83 72.64 C222.89 83.04, 223.24 92.63, 219.67 102.74 C216.11 112.86, 208.29 125.03, 199.44 133.33 C190.59 141.62, 178.97 147.43, 166.6 152.52 C154.22 157.6, 139.42 162.75, 125.19 163.86 C110.95 164.98, 94.77 162.31, 81.19 159.19 C67.61 156.07, 54.89 151.42, 43.73 145.15 C32.58 138.87, 21.58 130.34, 14.25 121.52 C6.92 112.69, 1.24 102.29, -0.26 92.21 C-1.75 82.14, 1.26 71.36, 5.27 61.07 C9.28 50.79, 15.27 39.17, 23.8 30.5 C32.32 21.82, 44.22 13.94, 56.42 9.04 C68.63 4.15, 90.06 2.28, 97 1.13 C103.94 -0.03, 97.68 1.03, 98.05 2.11" stroke="#d3d3d3" stroke-width="1" fill="none"></path></g><g transform="translate(104.16245026733691 32.34481367421722) rotate(0 18.186694960380123 5.975241722208239)" stroke="none"><path d="M-0.49 1.67 C-2.19 1.59, -7.21 1.08, -9.89 1.32 C-12.58 1.56, -14.22 1.95, -16.6 3.1 C-18.98 4.25, -22.27 7.38, -24.17 8.23 C-26.06 9.07, -27.37 7.14, -27.95 8.19 C-28.53 9.24, -28.15 13.32, -27.64 14.51 C-27.13 15.7, -26.22 14.89, -24.88 15.33 C-23.53 15.77, -21.86 16.65, -19.56 17.17 C-17.27 17.69, -14.9 18.7, -11.11 18.45 C-7.32 18.21, -0.2 16.97, 3.2 15.69 C6.61 14.41, 8.95 10.44, 9.31 10.78 C9.67 11.11, 6.77 15.36, 5.36 17.73 C3.96 20.1, 2.04 22.91, 0.89 24.99 C-0.26 27.07, -2.04 28.3, -1.52 30.18 C-1 32.06, 2.72 35.69, 4.02 36.29 C5.33 36.89, 4.5 35.27, 6.32 33.77 C8.15 32.27, 12.73 29.09, 14.98 27.29 C17.23 25.49, 16.83 23.94, 19.83 22.97 C22.83 22, 30.01 21.48, 32.98 21.46 C35.95 21.44, 35.43 21.99, 37.65 22.86 C39.87 23.74, 43.61 25.14, 46.31 26.7 C49.01 28.25, 52.05 31.77, 53.86 32.19 C55.66 32.62, 56.58 30.67, 57.16 29.26 C57.75 27.86, 59.01 26.19, 57.38 23.74 C55.75 21.29, 49.88 16.88, 47.4 14.58 C44.92 12.27, 43.73 10.98, 42.51 9.92 C41.3 8.87, 39.7 9.21, 40.12 8.25 C40.54 7.29, 41.34 3.93, 45.03 4.16 C48.71 4.39, 59.1 8.4, 62.22 9.62 C65.34 10.85, 63.36 11.84, 63.74 11.51 C64.12 11.17, 64.53 8.8, 64.49 7.64 C64.46 6.47, 64.56 5.92, 63.54 4.54 C62.51 3.15, 61.47 0.38, 58.32 -0.68 C55.18 -1.74, 47.85 -1.35, 44.64 -1.83 C41.43 -2.31, 41.67 -3.91, 39.07 -3.57 C36.47 -3.24, 30.66 -0.08, 29.05 0.17 C27.43 0.43, 30.27 -0.46, 29.4 -2.03 C28.52 -3.59, 25.15 -6.99, 23.81 -9.23 C22.47 -11.46, 23.18 -13.44, 21.35 -15.44 C19.53 -17.44, 15.13 -20.15, 12.88 -21.23 C10.63 -22.31, 9.51 -21.86, 7.84 -21.9 C6.18 -21.95, 4.1 -21.78, 2.88 -21.5 C1.66 -21.21, 1.15 -21.55, 0.53 -20.2 C-0.09 -18.85, -1.69 -15.65, -0.86 -13.41 C-0.03 -11.18, 4.27 -8.83, 5.51 -6.79 C6.74 -4.75, 7.32 -2.47, 6.54 -1.18 C5.76 0.11, 1.96 0.57, 0.81 0.94 C-0.34 1.32, 0.11 1.21, -0.37 1.07" stroke="none" stroke-width="0" fill="#043b0c" fill-rule="evenodd"></path><path fill="#39994b" d="M 4.28,-0.7 Q 4.28,-0.7 0.06,-0.69 0.13,-0.68 0.20,-0.66 0.26,-0.64 0.32,-0.61 0.38,-0.58 0.44,-0.53 0.49,-0.49 0.53,-0.44 0.58,-0.38 0.61,-0.32 0.64,-0.26 0.66,-0.20 0.68,-0.13 0.69,-0.06 0.7,8.57 0.69,0.06 0.68,0.13 0.66,0.20 0.64,0.26 0.61,0.32 0.58,0.38 0.53,0.44 0.49,0.49 0.44,0.53 0.38,0.58 0.32,0.61 0.26,0.64 0.20,0.66 0.13,0.68 0.06,0.69 -4.28,0.7 -0.04,0.7 -0.08,0.7 -0.15,0.7 -0.21,0.7 -0.29,0.7 -0.36,0.7 -0.50,0.69 -0.64,0.69 -0.80,0.63 -0.96,0.58 -1.03,0.57 -1.09,0.56 -1.20,0.55 -1.32,0.54 -1.42,0.54 -1.52,0.53 -1.70,0.53 -1.88,0.53 -2.06,0.53 -2.24,0.52 -2.58,0.52 -2.93,0.52 -3.37,0.52 -3.80,0.52 -4.28,0.52 -4.76,0.52 -5.34,0.52 -5.93,0.52 -6.48,0.52 -7.03,0.52 -7.68,0.52 -8.33,0.52 -8.80,0.56 -9.27,0.60 -9.76,0.70 -10.25,0.81 -10.68,0.90 -11.10,1.00 -11.48,1.09 -11.86,1.18 -12.16,1.26 -12.46,1.35 -12.77,1.47 -13.08,1.59 -13.60,1.83 -14.11,2.07 -14.68,2.28 -15.24,2.48 -15.77,2.71 -16.30,2.94 -16.81,3.18 -17.33,3.42 -17.80,3.67 -18.27,3.91 -18.63,4.12 -19.00,4.33 -19.28,4.49 -19.56,4.64 -19.77,4.75 -19.98,4.86 -20.13,4.96 -20.27,5.06 -20.43,5.15 -20.59,5.24 -20.71,5.33 -20.84,5.42 -20.96,5.49 -21.08,5.56 -21.18,5.67 -21.28,5.79 -21.44,5.91 -21.60,6.04 -21.75,6.16 -21.89,6.29 -22.04,6.43 -22.18,6.56 -22.30,6.71 -22.41,6.87 -22.63,7.11 -22.85,7.34 -23.13,7.59 -23.41,7.84 -23.67,8.08 -23.92,8.32 -24.17,8.56 -24.42,8.80 -24.63,9.05 -24.84,9.30 -25.03,9.50 -25.22,9.71 -25.40,9.95 -25.58,10.18 -25.69,10.30 -25.80,10.42 -25.85,10.57 -25.91,10.71 -25.99,10.86 -26.08,11.00 -26.14,11.10 -26.20,11.21 -26.22,11.31 -26.25,11.42 -26.27,11.56 -26.30,11.70 -26.35,11.86 -26.41,12.02 -26.43,12.10 -26.45,12.18 -26.47,12.33 -26.49,12.47 -26.55,12.58 -26.60,12.68 -26.61,12.68 -26.61,12.69 -26.59,12.74 -26.57,12.79 -26.54,12.92 -26.52,13.06 -26.53,13.12 -26.54,13.18 -26.51,13.21 -26.48,13.24 -26.44,13.34 -26.41,13.45 -26.42,13.46 -26.44,13.47 -26.35,13.51 -26.27,13.54 -26.17,13.66 -26.07,13.78 -26.06,13.80 -26.04,13.83 -25.99,13.85 -25.93,13.87 -25.87,13.92 -25.80,13.98 -25.79,13.98 -25.78,13.98 -25.67,14.00 -25.55,14.03 -25.45,14.09 -25.35,14.15 -25.28,14.16 -25.22,14.18 -25.04,14.26 -24.86,14.34 -24.78,14.40 -24.70,14.45 -24.57,14.48 -24.44,14.51 -24.34,14.57 -24.23,14.63 -24.09,14.66 -23.95,14.69 -23.77,14.78 -23.59,14.87 -23.50,14.93 -23.42,15.00 -23.36,15.02 -23.29,15.04 -23.19,15.09 -23.08,15.14 -22.98,15.16 -22.88,15.18 -22.71,15.20 -22.55,15.23 -22.44,15.28 -22.34,15.33 -22.17,15.35 -22.00,15.38 -21.81,15.45 -21.63,15.52 -21.51,15.58 -21.38,15.64 -21.28,15.67 -21.17,15.69 -20.97,15.71 -20.77,15.74 -20.63,15.79 -20.50,15.84 -20.39,15.86 -20.29,15.88 -20.19,15.89 -20.09,15.90 -20.00,15.90 -19.91,15.91 -19.77,15.92 -19.63,15.93 -19.48,15.98 -19.33,16.02 -19.17,16.05 -19.02,16.07 -18.86,16.12 -18.70,16.18 -18.51,16.20 -18.32,16.22 -18.04,16.28 -17.77,16.34 -17.52,16.36 -17.28,16.39 -16.99,16.40 -16.69,16.41 -16.42,16.42 -16.14,16.43 -15.87,16.43 -15.60,16.43 -15.29,16.44 -14.99,16.44 -14.70,16.44 -14.42,16.44 -14.15,16.44 -13.88,16.44 -13.70,16.44 -13.52,16.44 -13.34,16.44 -13.16,16.44 -12.99,16.44 -12.81,16.44 -12.64,16.44 -12.47,16.44 -12.28,16.44 -12.10,16.44 -11.88,16.40 -11.65,16.36 -11.46,16.34 -11.26,16.32 -11.03,16.27 -10.80,16.21 -10.54,16.19 -10.29,16.16 -10.02,16.11 -9.75,16.05 -9.49,15.99 -9.22,15.92 -8.94,15.83 -8.65,15.75 -8.38,15.71 -8.11,15.67 -7.90,15.62 -7.70,15.58 -7.48,15.46 -7.27,15.34 -7.02,15.28 -6.77,15.21 -6.55,15.11 -6.33,15.01 -6.11,14.90 -5.89,14.80 -5.62,14.69 -5.34,14.58 -5.07,14.53 -4.80,14.47 -4.56,14.41 -4.33,14.35 -4.08,14.28 -3.83,14.20 -3.59,14.12 -3.34,14.05 -3.13,13.97 -2.92,13.88 -2.65,13.79 -2.38,13.69 -2.12,13.64 -1.85,13.60 -1.62,13.54 -1.40,13.48 -1.19,13.41 -0.98,13.34 -0.67,13.25 -0.36,13.16 -0.08,13.11 0.20,13.07 0.49,13.01 0.78,12.95 1.08,12.87 1.37,12.79 1.70,12.75 2.03,12.71 2.36,12.65 2.70,12.59 2.99,12.56 3.28,12.53 3.56,12.47 3.83,12.41 4.13,12.38 4.42,12.35 4.70,12.33 4.98,12.32 5.25,12.31 5.52,12.30 5.74,12.30 5.96,12.29 6.16,12.29 6.35,12.29 6.49,12.29 6.62,12.30 6.72,12.26 6.82,12.22 6.97,12.19 7.11,12.16 7.24,12.15 7.36,12.14 7.47,12.13 7.57,12.12 7.67,12.12 7.77,12.12 7.86,12.12 7.95,12.11 8.17,12.11 8.39,12.11 8.59,12.11 8.78,12.11 9.01,12.11 9.24,12.11 9.44,12.11 9.64,12.11 9.78,12.11 9.93,12.11 10.09,12.11 10.24,12.11 10.37,12.11 10.49,12.11 10.67,12.12 10.85,12.13 10.97,12.18 11.09,12.23 11.17,12.24 11.25,12.25 11.45,12.28 11.66,12.32 11.92,12.64 12.18,12.96 12.02,13.32 11.86,13.68 11.76,13.72 11.65,13.77 11.59,13.81 11.53,13.86 11.45,13.88 11.37,13.91 11.29,13.97 11.21,14.02 11.12,14.05 11.04,14.08 10.95,14.14 10.87,14.19 10.78,14.22 10.69,14.25 10.61,14.31 10.52,14.36 10.43,14.39 10.35,14.42 10.26,14.48 10.17,14.54 10.06,14.58 9.95,14.62 9.84,14.67 9.73,14.72 9.58,14.79 9.44,14.86 9.33,14.91 9.22,14.95 9.10,15.07 8.98,15.20 8.76,15.32 8.54,15.44 8.42,15.53 8.29,15.62 8.12,15.73 7.95,15.85 7.81,16.00 7.66,16.15 7.39,16.34 7.11,16.53 6.87,16.69 6.63,16.85 6.42,17.02 6.20,17.19 6.02,17.32 5.83,17.44 5.62,17.62 5.41,17.80 5.26,17.93 5.11,18.07 4.97,18.20 4.83,18.34 4.71,18.49 4.60,18.64 4.45,18.80 4.31,18.97 4.20,19.13 4.09,19.29 3.95,19.46 3.81,19.63 3.67,19.74 3.54,19.85 3.46,19.94 3.39,20.04 3.29,20.19 3.19,20.35 3.10,20.47 3.01,20.59 2.93,20.71 2.86,20.84 2.77,21.00 2.68,21.16 2.55,21.37 2.42,21.58 2.31,21.77 2.21,21.95 2.13,22.09 2.05,22.23 2.01,22.39 1.97,22.55 1.89,22.75 1.82,22.95 1.75,23.10 1.68,23.25 1.65,23.38 1.63,23.50 1.60,23.67 1.57,23.84 1.51,23.96 1.46,24.07 1.43,24.22 1.41,24.36 1.33,24.52 1.25,24.68 1.19,24.79 1.13,24.91 1.11,24.98 1.09,25.05 1.06,25.18 1.04,25.32 0.98,25.43 0.92,25.54 0.91,25.56 0.91,25.58 0.90,25.67 0.89,25.77 0.88,25.94 0.86,26.11 0.81,26.22 0.76,26.34 0.75,26.42 0.74,26.49 0.73,26.58 0.72,26.67 0.70,26.86 0.69,27.05 0.64,27.19 0.59,27.32 0.58,27.41 0.56,27.50 0.55,27.64 0.55,27.77 0.54,28.01 0.53,28.25 0.53,28.44 0.53,28.62 0.57,28.88 0.61,29.15 0.63,29.40 0.64,29.66 0.69,29.83 0.73,30.01 0.80,30.22 0.88,30.42 0.92,30.65 0.96,30.88 0.98,31.08 1.00,31.28 0.99,31.32 0.98,31.36 1.01,31.39 1.05,31.42 1.10,31.57 1.15,31.73 1.13,31.72 1.11,31.72 1.13,31.71 1.15,31.70 1.25,31.79 1.34,31.88 1.43,31.97 1.52,32.06 1.58,32.12 1.65,32.19 1.76,32.26 1.88,32.34 1.96,32.41 2.05,32.48 2.18,32.55 2.32,32.62 2.37,32.69 2.42,32.75 2.38,32.72 2.34,32.70 2.35,32.70 2.37,32.70 2.48,32.71 2.59,32.73 2.73,32.78 2.88,32.83 2.95,32.84 3.02,32.86 3.14,32.88 3.26,32.89 3.41,32.95 3.56,33.00 3.70,33.03 3.83,33.07 3.94,33.13 4.05,33.19 4.09,33.20 4.12,33.20 4.17,33.21 4.23,33.22 4.37,33.24 4.52,33.26 4.64,33.31 4.76,33.37 4.78,33.38 4.81,33.38 4.86,33.39 4.92,33.40 4.98,33.40 5.05,33.41 5.22,33.41 5.39,33.42 5.56,33.47 5.73,33.52 5.86,33.53 5.99,33.55 6.10,33.56 6.20,33.57 6.30,33.57 6.39,33.58 6.48,33.58 6.57,33.58 6.66,33.59 6.75,33.59 6.88,33.59 7.01,33.59 7.06,33.59 7.12,33.60 7.20,33.57 7.27,33.54 7.39,33.49 7.51,33.44 7.70,33.34 7.88,33.23 8.08,33.11 8.27,32.99 8.45,32.82 8.62,32.64 8.81,32.45 9.00,32.26 9.18,32.08 9.36,31.90 9.55,31.71 9.75,31.52 9.93,31.38 10.11,31.24 10.33,31.04 10.55,30.85 10.75,30.70 10.95,30.56 11.12,30.41 11.29,30.27 11.48,30.09 11.68,29.91 11.94,29.74 12.20,29.58 12.36,29.42 12.52,29.26 12.76,29.07 12.99,28.88 13.26,28.69 13.53,28.50 13.88,28.31 14.23,28.13 14.52,27.96 14.81,27.80 15.20,27.57 15.59,27.34 16.01,27.18 16.43,27.02 16.76,26.87 17.10,26.72 17.40,26.52 17.70,26.32 18.05,26.12 18.41,25.91 18.70,25.77 19.00,25.63 19.27,25.48 19.54,25.33 19.78,25.20 20.02,25.07 20.27,24.97 20.51,24.86 20.75,24.73 20.98,24.60 21.21,24.48 21.44,24.36 21.69,24.25 21.93,24.15 22.14,24.05 22.35,23.96 22.60,23.86 22.84,23.77 23.08,23.68 23.32,23.60 23.61,23.47 23.90,23.34 24.18,23.23 24.46,23.12 24.77,22.98 25.08,22.84 25.38,22.72 25.67,22.60 25.93,22.51 26.19,22.42 26.35,22.33 26.51,22.25 26.71,22.15 26.91,22.05 27.05,22.00 27.19,21.95 27.37,21.87 27.55,21.80 27.78,21.76 28.00,21.72 28.16,21.67 28.33,21.62 28.54,21.55 28.75,21.48 28.96,21.40 29.18,21.31 29.56,21.22 29.94,21.13 30.24,21.05 30.55,20.97 30.89,20.88 31.24,20.79 31.51,20.74 31.78,20.69 31.97,20.67 32.15,20.65 32.30,20.64 32.44,20.63 32.61,20.58 32.77,20.54 33.03,20.51 33.28,20.48 33.53,20.46 33.79,20.45 34.00,20.44 34.21,20.44 34.45,20.44 34.68,20.43 34.89,20.43 35.09,20.43 35.33,20.43 35.56,20.43 35.76,20.43 35.96,20.43 36.18,20.43 36.40,20.43 36.68,20.47 36.96,20.52 37.20,20.54 37.44,20.57 37.70,20.64 37.96,20.71 38.10,20.78 38.25,20.86 38.32,20.87 38.38,20.89 38.52,20.92 38.65,20.95 38.82,21.04 38.99,21.13 39.06,21.19 39.13,21.24 39.26,21.31 39.39,21.37 39.42,21.42 39.45,21.47 39.43,21.45 39.42,21.42 39.48,21.43 39.55,21.44 39.70,21.46 39.84,21.48 40.09,21.63 40.35,21.77 40.37,21.87 40.40,21.96 40.48,21.96 40.56,21.96 40.78,22.13 41.01,22.30 41.22,22.41 41.42,22.51 41.70,22.65 41.98,22.79 42.27,22.92 42.56,23.05 42.82,23.21 43.08,23.38 43.20,23.47 43.32,23.57 43.44,23.61 43.57,23.65 43.78,23.74 44.00,23.84 44.19,23.97 44.38,24.11 44.58,24.23 44.78,24.36 44.92,24.51 45.06,24.66 45.20,24.76 45.34,24.86 45.54,25.04 45.75,25.22 45.82,25.33 45.89,25.44 45.99,25.51 46.09,25.58 46.18,25.67 46.28,25.75 46.40,25.83 46.52,25.90 46.71,26.03 46.90,26.16 47.10,26.27 47.30,26.39 47.51,26.55 47.71,26.71 47.82,26.81 47.93,26.90 48.06,26.98 48.20,27.06 48.30,27.17 48.40,27.29 48.50,27.41 48.60,27.52 48.64,27.62 48.69,27.72 48.72,27.76 48.75,27.80 48.84,27.91 48.94,28.03 49.00,28.16 49.06,28.29 49.10,28.39 49.15,28.48 49.20,28.55 49.24,28.62 49.33,28.72 49.43,28.83 49.62,28.99 49.82,29.16 49.91,29.27 50.01,29.39 50.14,29.50 50.27,29.60 50.44,29.80 50.60,30.00 50.68,30.18 50.77,30.35 50.79,30.44 50.81,30.52 50.87,30.61 50.92,30.69 50.95,30.78 50.97,30.87 51.00,30.90 51.02,30.93 51.11,31.04 51.20,31.16 51.24,31.25 51.29,31.35 51.28,31.35 51.27,31.35 51.31,31.36 51.34,31.38 51.42,31.44 51.50,31.51 51.60,31.57 51.70,31.62 51.90,31.74 52.09,31.85 52.16,31.93 52.24,32.01 52.23,32.00 52.22,31.99 52.16,31.99 52.09,31.99 52.00,32.02 51.91,32.04 52.06,31.87 52.21,31.70 52.41,31.45 52.61,31.19 52.86,30.96 53.10,30.73 53.24,30.60 53.38,30.47 53.53,30.28 53.69,30.09 53.82,29.94 53.96,29.78 54.11,29.62 54.27,29.45 54.36,29.36 54.45,29.27 54.50,29.18 54.55,29.09 54.62,28.99 54.70,28.89 54.77,28.76 54.85,28.63 54.92,28.54 54.99,28.45 55.01,28.42 55.02,28.38 55.05,28.27 55.08,28.15 55.13,28.07 55.18,27.98 55.20,27.86 55.23,27.74 55.28,27.63 55.34,27.52 55.35,27.44 55.37,27.36 55.38,27.27 55.39,27.18 55.40,27.05 55.40,26.93 55.40,26.82 55.41,26.71 55.41,26.53 55.41,26.35 55.41,26.21 55.41,26.07 55.42,25.92 55.42,25.76 55.38,25.60 55.34,25.44 55.31,25.28 55.29,25.12 55.28,25.00 55.28,24.88 55.24,24.79 55.20,24.70 55.16,24.55 55.13,24.40 55.11,24.28 55.09,24.16 55.10,24.13 55.11,24.09 55.06,24.02 55.02,23.95 55.00,23.82 54.98,23.69 54.96,23.65 54.93,23.61 54.85,23.48 54.76,23.35 54.70,23.16 54.65,22.97 54.61,22.85 54.58,22.72 54.47,22.59 54.36,22.46 54.25,22.20 54.14,21.94 54.03,21.78 53.92,21.62 53.73,21.39 53.54,21.17 53.34,20.91 53.15,20.65 52.96,20.38 52.77,20.11 52.66,19.93 52.54,19.74 52.39,19.59 52.24,19.44 52.14,19.29 52.03,19.13 51.97,19.02 51.92,18.91 51.83,18.83 51.73,18.75 51.62,18.65 51.51,18.54 51.35,18.38 51.19,18.22 51.08,18.07 50.97,17.92 50.79,17.77 50.61,17.61 50.46,17.43 50.32,17.25 50.13,17.04 49.94,16.84 49.77,16.66 49.61,16.49 49.44,16.36 49.27,16.23 49.08,16.06 48.89,15.89 48.70,15.71 48.50,15.52 48.39,15.37 48.28,15.22 48.11,15.12 47.95,15.02 47.74,14.85 47.54,14.68 47.37,14.53 47.20,14.38 47.05,14.27 46.90,14.17 46.75,14.07 46.59,13.98 46.44,13.89 46.30,13.81 46.15,13.76 46.00,13.70 45.82,13.57 45.64,13.44 45.49,13.36 45.35,13.27 45.16,13.16 44.98,13.06 44.80,12.92 44.62,12.78 44.45,12.67 44.28,12.57 44.13,12.45 43.98,12.34 43.89,12.26 43.79,12.17 43.68,12.10 43.57,12.03 43.37,11.92 43.18,11.81 43.06,11.67 42.93,11.54 42.72,11.42 42.51,11.29 42.39,11.13 42.27,10.96 42.17,10.88 42.06,10.79 41.90,10.64 41.74,10.49 41.61,10.37 41.49,10.25 41.32,10.08 41.14,9.90 41.04,9.75 40.94,9.59 40.89,9.49 40.84,9.39 40.76,9.33 40.69,9.27 40.56,9.08 40.43,8.89 40.35,8.71 40.28,8.53 40.25,8.34 40.22,8.15 40.22,8.09 40.22,8.03 40.18,7.96 40.14,7.89 40.10,7.74 40.06,7.59 40.04,7.47 40.03,7.35 40.02,7.24 40.01,7.14 40.01,7.04 40.00,6.94 40.01,6.77 40.02,6.60 40.07,6.47 40.13,6.34 40.18,6.18 40.24,6.03 40.36,5.91 40.48,5.79 40.54,5.73 40.60,5.68 40.72,5.57 40.84,5.46 40.94,5.41 41.04,5.36 41.16,5.28 41.27,5.20 41.49,5.14 41.70,5.09 41.83,5.07 41.97,5.05 42.08,5.04 42.20,5.03 42.34,5.02 42.49,5.02 42.60,5.02 42.72,5.02 42.77,5.02 42.81,5.02 42.93,4.98 43.04,4.94 43.24,4.91 43.43,4.89 43.62,4.87 43.80,4.86 43.98,4.85 44.15,4.85 44.33,4.85 44.50,4.84 44.68,4.84 44.86,4.85 45.05,4.89 45.23,4.94 45.36,4.97 45.49,4.99 45.70,5.07 45.91,5.14 46.00,5.21 46.10,5.27 46.17,5.28 46.25,5.30 46.41,5.32 46.57,5.33 46.80,5.39 47.03,5.45 47.32,5.52 47.62,5.59 47.97,5.71 48.33,5.84 48.71,5.94 49.08,6.04 49.51,6.13 49.94,6.23 50.36,6.38 50.77,6.53 51.09,6.68 51.42,6.84 51.73,6.95 52.04,7.06 52.35,7.17 52.65,7.27 52.90,7.37 53.15,7.47 53.38,7.58 53.61,7.68 53.73,7.76 53.85,7.84 54.00,7.88 54.15,7.92 54.31,8.00 54.46,8.08 54.58,8.14 54.70,8.20 54.93,8.28 55.15,8.35 55.40,8.43 55.65,8.52 55.90,8.60 56.15,8.68 56.48,8.78 56.82,8.87 57.05,9.00 57.28,9.13 57.52,9.19 57.75,9.25 57.95,9.34 58.15,9.43 58.29,9.50 58.43,9.56 58.60,9.61 58.78,9.65 58.92,9.71 59.05,9.78 59.18,9.82 59.30,9.86 59.40,9.92 59.50,9.98 59.53,9.99 59.56,9.99 59.61,10.00 59.66,10.01 59.73,10.01 59.79,10.02 60.00,10.05 60.21,10.09 60.30,10.16 60.39,10.23 60.35,10.20 60.31,10.18 60.25,10.19 60.19,10.19 60.14,10.20 60.10,10.21 60.17,10.15 60.24,10.10 60.43,9.99 60.62,9.89 60.78,9.85 60.93,9.81 61.04,9.75 61.16,9.69 61.31,9.64 61.47,9.59 61.52,9.59 61.58,9.58 61.60,9.57 61.61,9.56 61.63,9.55 61.64,9.55 61.64,9.53 61.65,9.51 61.72,9.37 61.80,9.23 61.88,9.12 61.96,9.01 62.01,8.92 62.06,8.84 62.09,8.71 62.12,8.58 62.20,8.37 62.29,8.16 62.35,8.05 62.42,7.95 62.44,7.86 62.45,7.77 62.48,7.64 62.50,7.50 62.58,7.30 62.65,7.09 62.71,6.99 62.77,6.89 62.79,6.81 62.80,6.73 62.82,6.65 62.83,6.56 62.85,6.38 62.86,6.19 62.91,6.06 62.97,5.92 62.98,5.83 62.99,5.73 63.00,5.64 63.01,5.54 63.02,5.41 63.02,5.28 63.03,5.17 63.03,5.06 63.03,4.96 63.03,4.87 63.04,4.85 63.05,4.84 63.02,4.79 62.99,4.74 62.97,4.67 62.96,4.60 62.94,4.58 62.93,4.56 62.87,4.50 62.82,4.43 62.75,4.36 62.69,4.28 62.61,4.20 62.53,4.12 62.45,4.03 62.37,3.95 62.34,3.91 62.32,3.88 62.22,3.85 62.12,3.82 61.93,3.70 61.75,3.57 61.59,3.48 61.44,3.38 61.21,3.23 60.97,3.08 60.72,2.87 60.47,2.66 60.15,2.40 59.83,2.14 59.52,1.94 59.20,1.73 58.86,1.53 58.52,1.34 58.23,1.16 57.94,0.98 57.66,0.84 57.38,0.71 57.17,0.58 56.96,0.45 56.84,0.37 56.73,0.28 56.68,0.26 56.63,0.24 56.51,0.20 56.39,0.17 56.30,0.12 56.22,0.06 56.11,0.04 56.00,0.03 55.73,-0.07 55.47,-0.18 55.23,-0.27 54.99,-0.36 54.73,-0.45 54.47,-0.55 54.25,-0.64 54.04,-0.73 53.84,-0.80 53.63,-0.88 53.40,-0.92 53.17,-0.96 52.93,-1.02 52.68,-1.08 52.42,-1.12 52.16,-1.15 51.89,-1.22 51.62,-1.30 51.48,-1.37 51.33,-1.44 51.22,-1.46 51.11,-1.49 50.97,-1.51 50.83,-1.53 50.66,-1.59 50.50,-1.64 50.43,-1.66 50.35,-1.68 50.24,-1.69 50.12,-1.70 49.94,-1.70 49.76,-1.71 49.50,-1.77 49.24,-1.83 49.06,-1.89 48.88,-1.95 48.66,-1.99 48.45,-2.02 48.25,-2.08 48.05,-2.14 47.86,-2.16 47.66,-2.18 47.47,-2.20 47.29,-2.22 47.11,-2.28 46.94,-2.33 46.80,-2.35 46.67,-2.37 46.51,-2.39 46.35,-2.40 46.19,-2.45 46.03,-2.51 45.91,-2.52 45.78,-2.54 45.68,-2.55 45.57,-2.56 45.38,-2.58 45.18,-2.59 45.04,-2.64 44.91,-2.69 44.81,-2.71 44.71,-2.72 44.62,-2.73 44.52,-2.74 44.35,-2.74 44.17,-2.75 44.04,-2.75 43.91,-2.75 43.75,-2.75 43.60,-2.76 43.40,-2.76 43.19,-2.76 42.96,-2.76 42.72,-2.76 42.52,-2.76 42.32,-2.76 42.09,-2.76 41.86,-2.76 41.61,-2.76 41.36,-2.76 41.15,-2.76 40.95,-2.76 40.80,-2.76 40.65,-2.76 40.44,-2.76 40.24,-2.76 40.05,-2.76 39.86,-2.76 39.72,-2.76 39.59,-2.76 39.43,-2.72 39.27,-2.68 39.11,-2.67 38.94,-2.65 38.77,-2.59 38.60,-2.54 38.34,-2.50 38.08,-2.47 37.87,-2.46 37.67,-2.44 37.55,-2.44 37.44,-2.43 37.25,-2.39 37.07,-2.34 36.85,-2.32 36.64,-2.29 36.49,-2.28 36.34,-2.26 36.22,-2.26 36.09,-2.26 35.96,-2.22 35.82,-2.18 35.70,-2.16 35.59,-2.14 35.44,-2.08 35.29,-2.03 35.12,-2.00 34.96,-1.97 34.79,-1.91 34.62,-1.86 34.44,-1.82 34.26,-1.79 34.05,-1.74 33.84,-1.68 33.66,-1.65 33.48,-1.61 33.29,-1.59 33.11,-1.58 33.02,-1.58 32.93,-1.57 32.80,-1.53 32.67,-1.49 32.52,-1.47 32.38,-1.45 32.26,-1.39 32.13,-1.34 31.89,-1.30 31.64,-1.26 31.48,-1.25 31.33,-1.23 31.22,-1.23 31.11,-1.23 31.01,-1.19 30.91,-1.15 30.75,-1.12 30.60,-1.09 30.44,-1.04 30.28,-0.99 30.13,-0.96 29.98,-0.94 29.85,-0.88 29.72,-0.82 29.47,-0.78 29.22,-0.74 29.11,-0.73 29.00,-0.72 28.85,-0.68 28.70,-0.63 28.50,-0.59 28.29,-0.56 28.14,-0.55 28.00,-0.54 27.85,-0.50 27.69,-0.45 27.54,-0.42 27.38,-0.39 27.36,-0.41 27.35,-0.42 27.33,-0.39 27.31,-0.36 27.39,-0.52 27.47,-0.69 27.34,-1.08 27.20,-1.48 26.91,-1.49 26.61,-1.50 26.46,-1.33 26.30,-1.16 26.30,-1.29 26.30,-1.42 26.35,-1.73 26.39,-2.05 26.42,-2.36 26.44,-2.66 26.45,-2.99 26.47,-3.32 26.39,-3.59 26.32,-3.87 26.23,-4.27 26.15,-4.66 26.11,-4.96 26.07,-5.27 25.97,-5.57 25.87,-5.87 25.77,-6.19 25.66,-6.52 25.61,-6.85 25.56,-7.18 25.50,-7.39 25.44,-7.60 25.38,-7.79 25.31,-7.98 25.22,-8.19 25.13,-8.40 25.09,-8.56 25.06,-8.72 24.98,-8.85 24.90,-8.97 24.76,-9.19 24.62,-9.41 24.51,-9.61 24.39,-9.81 24.25,-10.03 24.11,-10.25 23.96,-10.48 23.81,-10.72 23.61,-11.01 23.40,-11.29 23.18,-11.60 22.95,-11.91 22.74,-12.17 22.54,-12.42 22.39,-12.63 22.24,-12.84 22.09,-13.02 21.93,-13.21 21.77,-13.44 21.60,-13.67 21.50,-13.79 21.40,-13.92 21.19,-14.09 20.99,-14.27 20.84,-14.49 20.69,-14.71 20.52,-14.88 20.34,-15.04 20.12,-15.26 19.90,-15.48 19.63,-15.71 19.36,-15.94 19.09,-16.14 18.82,-16.35 18.49,-16.61 18.15,-16.87 17.78,-17.08 17.42,-17.29 17.04,-17.49 16.67,-17.69 16.37,-17.88 16.06,-18.06 15.77,-18.19 15.49,-18.33 15.19,-18.50 14.90,-18.66 14.71,-18.79 14.52,-18.92 14.30,-19.06 14.09,-19.20 13.91,-19.31 13.73,-19.42 13.48,-19.55 13.22,-19.69 12.99,-19.79 12.75,-19.89 12.44,-20.00 12.14,-20.10 11.81,-20.23 11.49,-20.37 11.16,-20.48 10.84,-20.59 10.57,-20.68 10.29,-20.77 10.02,-20.82 9.74,-20.87 9.49,-20.94 9.23,-21.02 9.05,-21.09 8.87,-21.16 8.69,-21.19 8.50,-21.22 8.32,-21.24 8.14,-21.26 7.93,-21.27 7.73,-21.28 7.48,-21.33 7.24,-21.38 7.11,-21.40 6.98,-21.42 6.79,-21.44 6.61,-21.45 6.42,-21.51 6.23,-21.56 6.13,-21.58 6.03,-21.60 5.95,-21.61 5.87,-21.62 5.75,-21.62 5.62,-21.63 5.51,-21.63 5.40,-21.63 5.27,-21.64 5.13,-21.64 5.01,-21.64 4.90,-21.64 4.80,-21.64 4.70,-21.64 4.60,-21.64 4.51,-21.64 4.52,-21.65 4.53,-21.67 4.48,-21.62 4.43,-21.57 4.27,-21.47 4.10,-21.38 3.96,-21.31 3.82,-21.23 3.68,-21.13 3.55,-21.02 3.41,-20.90 3.27,-20.78 3.15,-20.63 3.04,-20.48 2.91,-20.34 2.77,-20.19 2.67,-20.00 2.57,-19.81 2.44,-19.60 2.30,-19.39 2.24,-19.21 2.18,-19.03 2.09,-18.83 2.01,-18.62 1.93,-18.46 1.85,-18.29 1.82,-18.18 1.79,-18.06 1.72,-17.88 1.66,-17.70 1.64,-17.60 1.62,-17.49 1.60,-17.32 1.59,-17.15 1.58,-16.98 1.58,-16.80 1.57,-16.54 1.57,-16.28 1.57,-16.06 1.57,-15.85 1.56,-15.63 1.56,-15.42 1.60,-15.17 1.64,-14.91 1.70,-14.63 1.77,-14.35 1.80,-14.03 1.83,-13.72 1.89,-13.45 1.95,-13.18 2.01,-12.85 2.08,-12.52 2.20,-12.22 2.32,-11.92 2.42,-11.56 2.52,-11.19 2.65,-10.91 2.77,-10.63 2.93,-10.35 3.08,-10.06 3.21,-9.78 3.33,-9.49 3.44,-9.27 3.54,-9.06 3.63,-8.86 3.73,-8.67 3.81,-8.50 3.89,-8.33 3.98,-8.19 4.08,-8.04 4.15,-7.86 4.22,-7.68 4.25,-7.49 4.28,-7.30 4.30,-7.16 4.31,-7.03 4.31,-6.97 4.31,-6.91 4.35,-6.78 4.40,-6.66 4.43,-6.41 4.46,-6.17 4.47,-6.00 4.48,-5.83 4.52,-5.62 4.57,-5.41 4.59,-5.22 4.62,-5.02 4.67,-4.79 4.73,-4.56 4.76,-4.29 4.79,-4.01 4.81,-3.79 4.82,-3.57 4.83,-3.37 4.84,-3.17 4.84,-3.03 4.85,-2.89 4.85,-2.77 4.85,-2.65 4.85,-2.51 4.85,-2.36 4.85,-2.20 4.85,-2.04 4.85,-1.87 4.85,-1.70 4.80,-1.53 4.75,-1.36 4.73,-1.23 4.72,-1.10 4.71,-1.00 4.70,-0.89 4.68,-0.72 4.67,-0.55 4.61,-0.42 4.56,-0.29 4.55,-0.26 4.54,-0.22 4.53,-0.16 4.52,-0.10 4.49,0.09 4.45,0.29 4.38,0.37 4.31,0.46 4.31,0.50 4.30,0.53 4.17,0.71 4.03,0.89 3.97,0.91 3.92,0.94 3.88,1.00 3.84,1.07 3.65,1.18 3.47,1.29 3.47,1.26 3.47,1.24 3.46,1.28 3.45,1.31 3.27,1.39 3.09,1.48 3.10,1.46 3.11,1.43 3.10,1.46 3.09,1.49 2.91,1.57 2.73,1.66 2.61,1.68 2.48,1.70 2.38,1.71 2.27,1.72 2.32,1.69 2.36,1.66 2.36,1.68 2.37,1.70 2.20,1.77 2.02,1.84 1.90,1.86 1.78,1.88 1.68,1.89 1.58,1.89 1.36,1.88 1.14,1.86 0.64,1.44 0.13,1.03 0.09,0.97 0.06,0.91 0.03,0.84 0.01,0.78 0.00,0.71 -0.00,0.65 -0.00,0.58 -0.00,0.51 0.01,0.44 0.02,0.37 0.05,0.31 0.08,0.25 0.12,0.19 0.16,0.14 0.21,0.09 0.26,0.04 0.32,0.01 0.37,-0.02 0.44,-0.04 0.50,-0.07 0.57,-0.08 0.64,-0.09 0.71,-0.09 0.78,-0.09 0.84,-0.07 0.91,-0.05 0.97,-0.03 1.03,-0.00 1.09,0.03 1.15,0.07 1.19,0.12 1.24,0.17 1.28,0.23 1.31,0.29 1.34,0.35 1.36,0.42 1.37,0.48 1.38,0.55 1.38,0.62 1.38,0.69 1.36,0.76 1.35,0.82 1.32,0.88 1.29,0.95 1.25,1.00 1.21,1.06 1.16,1.11 1.11,1.15 1.05,1.19 1.00,1.23 0.93,1.25 0.87,1.27 0.80,1.29 0.73,1.30 0.66,1.29 0.59,1.29 0.53,1.28 0.46,1.26 0.40,1.23 0.34,1.20 0.28,1.17 0.22,1.13 0.18,1.08 0.13,1.03 0.09,0.97 0.06,0.91 0.03,0.84 0.01,0.78 0.00,0.71 -0.00,0.65 -0.00,0.58 -0.00,0.51 0.01,0.44 0.02,0.37 0.05,0.31 0.08,0.25 0.12,0.19 0.16,0.14 0.21,0.09 0.26,0.04 0.32,0.01 0.37,-0.02 0.44,-0.04 0.50,-0.07 0.57,-0.08 0.64,-0.09 0.71,-0.09 0.78,-0.09 0.84,-0.07 0.91,-0.05 0.97,-0.03 1.03,-0.00 1.09,0.03 1.15,0.07 1.38,0.31 1.61,0.54 1.56,0.52 1.51,0.50 1.57,0.49 1.63,0.49 1.66,0.49 1.69,0.48 1.64,0.51 1.60,0.53 1.69,0.46 1.78,0.39 1.99,0.36 2.19,0.32 2.25,0.32 2.31,0.31 2.33,0.31 2.36,0.31 2.30,0.34 2.24,0.38 2.31,0.31 2.38,0.24 2.54,0.19 2.69,0.14 2.64,0.17 2.58,0.21 2.64,0.14 2.71,0.07 2.85,0.02 3.00,-0.03 2.94,0.01 2.87,0.06 2.91,0.00 2.94,-0.05 3.02,-0.10 3.11,-0.15 3.08,-0.13 3.06,-0.10 3.10,-0.20 3.14,-0.29 3.16,-0.29 3.18,-0.29 3.16,-0.27 3.13,-0.24 3.15,-0.36 3.16,-0.48 3.20,-0.63 3.24,-0.77 3.28,-0.84 3.31,-0.90 3.31,-0.94 3.30,-0.98 3.31,-1.12 3.33,-1.26 3.35,-1.45 3.38,-1.65 3.42,-1.77 3.46,-1.90 3.46,-1.97 3.45,-2.04 3.45,-2.20 3.45,-2.36 3.45,-2.50 3.45,-2.64 3.45,-2.75 3.45,-2.86 3.44,-2.99 3.44,-3.13 3.43,-3.31 3.43,-3.49 3.41,-3.69 3.40,-3.89 3.38,-4.10 3.35,-4.31 3.30,-4.54 3.24,-4.77 3.22,-4.97 3.19,-5.17 3.14,-5.41 3.09,-5.64 3.08,-5.84 3.06,-6.05 3.05,-6.20 3.03,-6.35 2.98,-6.50 2.93,-6.65 2.92,-6.79 2.91,-6.93 2.90,-7.02 2.89,-7.12 2.88,-7.21 2.87,-7.31 2.85,-7.35 2.83,-7.39 2.75,-7.52 2.67,-7.64 2.57,-7.85 2.47,-8.05 2.37,-8.26 2.27,-8.46 2.17,-8.69 2.06,-8.91 1.94,-9.18 1.83,-9.44 1.67,-9.73 1.51,-10.02 1.36,-10.37 1.21,-10.72 1.10,-11.10 0.99,-11.48 0.86,-11.80 0.74,-12.12 0.66,-12.51 0.58,-12.90 0.51,-13.20 0.45,-13.50 0.42,-13.81 0.39,-14.12 0.32,-14.39 0.26,-14.65 0.21,-14.99 0.16,-15.32 0.16,-15.59 0.17,-15.86 0.17,-16.08 0.17,-16.30 0.17,-16.57 0.18,-16.84 0.19,-17.04 0.19,-17.24 0.21,-17.47 0.23,-17.70 0.27,-17.89 0.31,-18.07 0.38,-18.28 0.45,-18.49 0.50,-18.64 0.55,-18.79 0.64,-18.99 0.73,-19.19 0.80,-19.36 0.87,-19.54 0.96,-19.77 1.04,-20.00 1.20,-20.26 1.36,-20.52 1.50,-20.76 1.63,-21.00 1.80,-21.19 1.97,-21.38 2.11,-21.56 2.25,-21.74 2.45,-21.92 2.66,-22.10 2.86,-22.25 3.06,-22.41 3.24,-22.51 3.43,-22.61 3.57,-22.68 3.70,-22.76 3.92,-22.89 4.13,-23.01 4.32,-23.02 4.51,-23.04 4.61,-23.04 4.70,-23.04 4.80,-23.04 4.91,-23.04 5.02,-23.04 5.14,-23.04 5.28,-23.04 5.43,-23.03 5.55,-23.03 5.67,-23.03 5.83,-23.02 5.98,-23.01 6.11,-23.00 6.25,-22.98 6.40,-22.95 6.56,-22.92 6.71,-22.88 6.86,-22.83 7.00,-22.82 7.14,-22.81 7.32,-22.79 7.50,-22.76 7.70,-22.71 7.91,-22.67 8.08,-22.66 8.24,-22.65 8.46,-22.63 8.69,-22.61 8.96,-22.56 9.24,-22.51 9.46,-22.43 9.68,-22.35 9.88,-22.29 10.07,-22.23 10.35,-22.18 10.64,-22.13 10.96,-22.02 11.28,-21.91 11.63,-21.80 11.98,-21.68 12.31,-21.54 12.63,-21.41 12.94,-21.30 13.25,-21.20 13.54,-21.07 13.83,-20.95 14.12,-20.79 14.42,-20.64 14.63,-20.51 14.84,-20.39 15.07,-20.23 15.29,-20.08 15.46,-19.97 15.63,-19.85 15.88,-19.71 16.14,-19.57 16.43,-19.43 16.72,-19.29 17.04,-19.10 17.36,-18.91 17.73,-18.71 18.10,-18.52 18.51,-18.28 18.93,-18.04 19.31,-17.74 19.68,-17.45 19.96,-17.24 20.24,-17.03 20.54,-16.77 20.85,-16.51 21.08,-16.28 21.32,-16.05 21.55,-15.83 21.77,-15.61 21.90,-15.40 22.04,-15.20 22.22,-15.05 22.40,-14.89 22.55,-14.71 22.71,-14.52 22.87,-14.30 23.04,-14.07 23.20,-13.88 23.36,-13.68 23.51,-13.47 23.65,-13.26 23.85,-13.02 24.05,-12.77 24.30,-12.44 24.54,-12.11 24.75,-11.81 24.97,-11.51 25.13,-11.25 25.29,-11.00 25.44,-10.77 25.59,-10.53 25.70,-10.34 25.82,-10.14 25.95,-9.93 26.09,-9.71 26.23,-9.48 26.36,-9.24 26.41,-9.04 26.46,-8.83 26.53,-8.66 26.61,-8.49 26.69,-8.26 26.78,-8.03 26.85,-7.75 26.93,-7.47 26.98,-7.15 27.02,-6.84 27.11,-6.57 27.20,-6.30 27.32,-5.94 27.44,-5.57 27.48,-5.24 27.53,-4.90 27.60,-4.55 27.68,-4.19 27.77,-3.83 27.86,-3.46 27.85,-3.03 27.84,-2.59 27.81,-2.24 27.79,-1.89 27.74,-1.58 27.69,-1.27 27.66,-1.01 27.64,-0.75 27.43,-0.50 27.23,-0.24 26.84,-0.27 26.45,-0.29 26.30,-0.72 26.15,-1.14 26.37,-1.35 26.59,-1.56 26.68,-1.63 26.77,-1.70 26.97,-1.74 27.17,-1.78 27.27,-1.80 27.37,-1.81 27.56,-1.87 27.75,-1.92 27.94,-1.94 28.13,-1.95 28.26,-1.97 28.38,-1.99 28.55,-2.04 28.71,-2.09 28.88,-2.11 29.05,-2.13 29.19,-2.15 29.32,-2.17 29.45,-2.22 29.57,-2.28 29.75,-2.31 29.94,-2.34 30.10,-2.40 30.26,-2.45 30.40,-2.48 30.54,-2.50 30.68,-2.55 30.82,-2.60 31.03,-2.61 31.23,-2.63 31.35,-2.64 31.47,-2.65 31.61,-2.67 31.75,-2.68 31.87,-2.74 31.99,-2.79 32.17,-2.82 32.35,-2.85 32.52,-2.90 32.68,-2.95 32.84,-2.96 33.00,-2.97 33.14,-2.99 33.28,-3.00 33.40,-3.02 33.52,-3.04 33.74,-3.10 33.96,-3.16 34.12,-3.19 34.28,-3.21 34.45,-3.27 34.61,-3.33 34.77,-3.35 34.93,-3.38 35.08,-3.43 35.22,-3.49 35.36,-3.51 35.50,-3.54 35.69,-3.59 35.88,-3.64 36.07,-3.65 36.25,-3.66 36.37,-3.67 36.50,-3.68 36.66,-3.70 36.82,-3.72 37.03,-3.77 37.25,-3.82 37.41,-3.83 37.58,-3.84 37.77,-3.85 37.95,-3.86 38.12,-3.88 38.30,-3.91 38.48,-3.96 38.65,-4.01 38.84,-4.04 39.02,-4.06 39.22,-4.11 39.42,-4.15 39.64,-4.16 39.86,-4.16 40.05,-4.16 40.24,-4.16 40.44,-4.16 40.65,-4.16 40.80,-4.16 40.95,-4.16 41.15,-4.16 41.36,-4.16 41.61,-4.16 41.86,-4.16 42.09,-4.16 42.32,-4.16 42.52,-4.16 42.73,-4.16 42.96,-4.16 43.19,-4.16 43.40,-4.16 43.61,-4.16 43.77,-4.15 43.93,-4.15 44.07,-4.15 44.21,-4.15 44.41,-4.14 44.61,-4.13 44.75,-4.12 44.89,-4.11 45.08,-4.07 45.28,-4.04 45.37,-4.00 45.47,-3.96 45.57,-3.96 45.67,-3.96 45.82,-3.95 45.96,-3.93 46.16,-3.90 46.36,-3.87 46.50,-3.82 46.64,-3.77 46.74,-3.76 46.84,-3.76 47.04,-3.73 47.25,-3.69 47.40,-3.64 47.56,-3.60 47.69,-3.59 47.82,-3.58 48.08,-3.54 48.35,-3.50 48.55,-3.44 48.75,-3.38 48.98,-3.35 49.22,-3.31 49.42,-3.24 49.62,-3.17 49.78,-3.14 49.94,-3.10 50.08,-3.10 50.22,-3.09 50.39,-3.08 50.57,-3.06 50.73,-3.02 50.89,-2.99 51.03,-2.94 51.16,-2.89 51.27,-2.88 51.37,-2.86 51.58,-2.81 51.80,-2.76 51.96,-2.69 52.11,-2.61 52.28,-2.57 52.44,-2.52 52.69,-2.49 52.94,-2.46 53.21,-2.39 53.47,-2.32 53.73,-2.28 54.00,-2.23 54.27,-2.13 54.55,-2.03 54.76,-1.94 54.97,-1.85 55.22,-1.77 55.47,-1.68 55.73,-1.58 55.99,-1.48 56.20,-1.39 56.42,-1.30 56.57,-1.27 56.73,-1.23 56.83,-1.17 56.93,-1.11 57.01,-1.09 57.08,-1.08 57.26,-1.00 57.43,-0.92 57.58,-0.81 57.74,-0.70 57.89,-0.61 58.05,-0.51 58.33,-0.37 58.61,-0.24 58.93,-0.05 59.24,0.14 59.59,0.34 59.93,0.54 60.30,0.77 60.66,1.01 61.01,1.30 61.36,1.58 61.58,1.77 61.80,1.95 61.99,2.07 62.18,2.19 62.35,2.29 62.52,2.40 62.64,2.49 62.75,2.58 62.91,2.63 63.06,2.69 63.21,2.83 63.36,2.97 63.45,3.06 63.54,3.15 63.63,3.24 63.71,3.33 63.80,3.43 63.89,3.53 63.98,3.64 64.07,3.75 64.16,3.90 64.25,4.06 64.28,4.16 64.31,4.27 64.36,4.40 64.42,4.53 64.42,4.71 64.43,4.88 64.43,4.99 64.43,5.09 64.43,5.21 64.42,5.33 64.42,5.49 64.41,5.65 64.40,5.78 64.38,5.92 64.35,6.11 64.31,6.31 64.27,6.40 64.23,6.50 64.22,6.61 64.22,6.71 64.20,6.85 64.18,7.00 64.12,7.21 64.07,7.42 63.99,7.55 63.92,7.69 63.89,7.77 63.86,7.85 63.84,7.95 63.83,8.05 63.77,8.27 63.71,8.48 63.63,8.63 63.54,8.77 63.50,8.89 63.45,9.01 63.40,9.19 63.35,9.37 63.24,9.57 63.13,9.77 63.06,9.87 62.99,9.97 62.93,10.07 62.88,10.18 62.79,10.32 62.70,10.46 62.54,10.59 62.38,10.73 62.21,10.82 62.04,10.91 61.91,10.93 61.78,10.96 61.73,10.97 61.68,10.99 61.56,11.05 61.43,11.12 61.29,11.15 61.14,11.19 61.07,11.23 61.01,11.27 60.91,11.34 60.81,11.41 60.60,11.49 60.39,11.58 60.18,11.56 59.97,11.54 59.80,11.47 59.63,11.41 59.63,11.38 59.64,11.36 59.67,11.39 59.70,11.42 59.60,11.41 59.49,11.40 59.36,11.38 59.23,11.35 59.07,11.30 58.92,11.25 58.83,11.19 58.73,11.14 58.64,11.11 58.55,11.09 58.43,11.03 58.31,10.97 58.14,10.93 57.97,10.89 57.76,10.79 57.56,10.70 57.43,10.63 57.29,10.57 57.03,10.50 56.77,10.43 56.53,10.30 56.28,10.17 56.01,10.09 55.74,10.02 55.48,9.93 55.21,9.84 54.96,9.76 54.71,9.68 54.43,9.59 54.16,9.49 53.99,9.41 53.81,9.32 53.72,9.27 53.63,9.22 53.46,9.17 53.29,9.12 53.12,9.02 52.96,8.92 52.78,8.84 52.60,8.76 52.38,8.67 52.16,8.58 51.87,8.48 51.58,8.38 51.23,8.25 50.87,8.13 50.55,7.97 50.24,7.82 49.89,7.70 49.55,7.58 49.15,7.49 48.75,7.39 48.34,7.29 47.93,7.18 47.57,7.06 47.22,6.94 46.96,6.87 46.69,6.80 46.51,6.76 46.32,6.71 46.16,6.69 46.00,6.68 45.79,6.62 45.57,6.56 45.43,6.49 45.30,6.41 45.21,6.38 45.13,6.34 45.02,6.33 44.92,6.31 44.80,6.27 44.68,6.23 44.60,6.24 44.52,6.24 44.36,6.25 44.19,6.25 44.03,6.25 43.87,6.26 43.73,6.27 43.58,6.28 43.47,6.29 43.36,6.31 43.20,6.36 43.04,6.40 42.89,6.41 42.74,6.42 42.63,6.42 42.52,6.42 42.40,6.42 42.27,6.43 42.20,6.43 42.12,6.44 42.04,6.45 41.96,6.46 41.91,6.47 41.86,6.47 41.81,6.52 41.75,6.56 41.69,6.59 41.63,6.61 41.59,6.65 41.56,6.70 41.48,6.77 41.39,6.85 41.41,6.81 41.42,6.78 41.43,6.80 41.44,6.82 41.41,6.86 41.38,6.90 41.39,6.90 41.40,6.91 41.41,6.98 41.41,7.06 41.41,7.13 41.42,7.20 41.43,7.26 41.43,7.32 41.44,7.36 41.45,7.40 41.51,7.52 41.57,7.65 41.59,7.82 41.61,7.98 41.62,8.07 41.63,8.16 41.65,8.19 41.66,8.22 41.70,8.28 41.73,8.33 41.83,8.42 41.92,8.50 42.03,8.69 42.14,8.87 42.19,8.95 42.23,9.02 42.35,9.14 42.47,9.25 42.58,9.36 42.70,9.47 42.85,9.61 42.99,9.74 43.15,9.89 43.32,10.03 43.39,10.15 43.46,10.26 43.63,10.35 43.80,10.45 43.92,10.58 44.04,10.71 44.16,10.77 44.28,10.83 44.45,10.94 44.62,11.05 44.74,11.15 44.86,11.25 44.97,11.33 45.08,11.42 45.25,11.53 45.43,11.64 45.59,11.77 45.75,11.89 45.90,11.98 46.05,12.06 46.23,12.17 46.41,12.28 46.54,12.37 46.66,12.46 46.77,12.50 46.88,12.54 47.08,12.65 47.29,12.76 47.48,12.88 47.67,12.99 47.87,13.14 48.08,13.28 48.26,13.45 48.45,13.62 48.61,13.76 48.78,13.89 49.00,14.04 49.23,14.20 49.38,14.39 49.53,14.58 49.69,14.72 49.84,14.86 50.00,15.01 50.17,15.15 50.36,15.30 50.55,15.45 50.75,15.66 50.96,15.88 51.17,16.10 51.37,16.33 51.50,16.48 51.62,16.64 51.82,16.81 52.01,16.98 52.13,17.14 52.25,17.31 52.37,17.42 52.48,17.53 52.59,17.63 52.69,17.73 52.85,17.88 53.01,18.04 53.12,18.22 53.23,18.40 53.28,18.48 53.33,18.56 53.48,18.71 53.63,18.86 53.79,19.10 53.94,19.34 54.11,19.58 54.28,19.82 54.46,20.06 54.63,20.29 54.84,20.53 55.04,20.78 55.21,21.03 55.38,21.29 55.47,21.51 55.56,21.74 55.69,21.90 55.81,22.06 55.90,22.32 55.99,22.59 56.01,22.67 56.02,22.76 56.08,22.82 56.13,22.88 56.22,23.06 56.31,23.24 56.33,23.37 56.35,23.50 56.40,23.61 56.45,23.72 56.47,23.87 56.49,24.02 56.50,24.09 56.50,24.15 56.52,24.21 56.53,24.27 56.59,24.42 56.64,24.57 56.66,24.76 56.68,24.96 56.70,25.06 56.71,25.17 56.76,25.39 56.81,25.60 56.81,25.84 56.81,26.08 56.81,26.22 56.81,26.36 56.81,26.55 56.81,26.74 56.80,26.86 56.80,26.98 56.79,27.14 56.78,27.30 56.77,27.44 56.75,27.58 56.71,27.78 56.66,27.99 56.60,28.10 56.55,28.21 56.52,28.35 56.49,28.49 56.43,28.58 56.38,28.67 56.36,28.74 56.35,28.81 56.28,28.98 56.21,29.14 56.11,29.27 56.02,29.40 55.94,29.54 55.86,29.68 55.79,29.77 55.72,29.86 55.64,29.98 55.57,30.10 55.43,30.26 55.28,30.41 55.14,30.57 55.00,30.72 54.88,30.85 54.76,30.99 54.59,31.21 54.41,31.42 54.23,31.59 54.06,31.76 53.85,31.95 53.64,32.14 53.46,32.38 53.27,32.61 52.98,32.91 52.70,33.20 52.44,33.30 52.18,33.39 51.95,33.34 51.72,33.30 51.55,33.21 51.38,33.12 51.30,33.03 51.22,32.94 51.12,32.89 51.01,32.84 50.86,32.75 50.70,32.66 50.62,32.59 50.55,32.53 50.43,32.45 50.32,32.38 50.19,32.20 50.06,32.03 50.03,31.95 50.00,31.88 49.95,31.82 49.89,31.76 49.80,31.61 49.71,31.46 49.68,31.37 49.65,31.28 49.59,31.18 49.53,31.08 49.49,30.96 49.46,30.85 49.44,30.80 49.41,30.75 49.35,30.67 49.29,30.60 49.16,30.49 49.02,30.39 48.92,30.26 48.82,30.14 48.64,29.99 48.45,29.83 48.30,29.66 48.14,29.48 48.04,29.33 47.94,29.18 47.86,29.02 47.78,28.86 47.77,28.82 47.75,28.77 47.70,28.72 47.65,28.66 47.56,28.54 47.47,28.41 47.44,28.34 47.41,28.27 47.37,28.23 47.32,28.18 47.31,28.16 47.30,28.13 47.22,28.10 47.14,28.06 46.98,27.93 46.82,27.79 46.67,27.67 46.51,27.55 46.34,27.45 46.17,27.35 45.96,27.21 45.75,27.08 45.59,26.97 45.43,26.87 45.31,26.76 45.19,26.66 45.04,26.53 44.88,26.40 44.79,26.28 44.70,26.16 44.58,26.05 44.46,25.95 44.29,25.82 44.13,25.70 44.01,25.57 43.90,25.44 43.75,25.36 43.61,25.27 43.46,25.16 43.31,25.05 43.18,25.00 43.06,24.95 42.86,24.88 42.66,24.80 42.47,24.67 42.28,24.53 42.09,24.40 41.90,24.28 41.64,24.17 41.38,24.06 41.08,23.91 40.78,23.76 40.52,23.62 40.26,23.48 40.07,23.33 39.89,23.19 39.66,23.08 39.43,22.97 39.37,22.84 39.31,22.71 39.38,22.77 39.45,22.82 39.42,22.83 39.38,22.83 39.25,22.81 39.12,22.79 38.89,22.70 38.65,22.62 38.59,22.55 38.54,22.48 38.49,22.47 38.44,22.46 38.33,22.38 38.22,22.30 38.20,22.28 38.19,22.27 38.12,22.26 38.05,22.26 37.89,22.21 37.73,22.15 37.59,22.09 37.46,22.02 37.32,21.98 37.19,21.94 36.99,21.93 36.78,21.91 36.53,21.87 36.28,21.82 36.12,21.83 35.96,21.83 35.76,21.83 35.56,21.83 35.33,21.83 35.10,21.83 34.90,21.83 34.70,21.83 34.47,21.83 34.24,21.84 34.04,21.84 33.84,21.85 33.62,21.86 33.40,21.87 33.22,21.89 33.04,21.91 32.86,21.96 32.68,22.01 32.48,22.03 32.29,22.04 32.14,22.06 31.99,22.08 31.76,22.12 31.53,22.16 31.22,22.24 30.91,22.32 30.59,22.40 30.28,22.49 29.94,22.57 29.60,22.65 29.41,22.72 29.23,22.80 28.99,22.87 28.75,22.95 28.54,23.02 28.32,23.09 28.13,23.11 27.95,23.14 27.82,23.20 27.70,23.25 27.58,23.30 27.45,23.34 27.30,23.41 27.15,23.49 26.95,23.60 26.75,23.70 26.46,23.81 26.17,23.91 25.90,24.02 25.63,24.13 25.31,24.27 25.00,24.41 24.72,24.52 24.44,24.63 24.14,24.76 23.84,24.90 23.59,24.99 23.33,25.08 23.11,25.16 22.89,25.25 22.69,25.34 22.50,25.43 22.27,25.53 22.04,25.62 21.85,25.73 21.65,25.83 21.39,25.97 21.12,26.12 20.88,26.22 20.63,26.33 20.42,26.44 20.22,26.56 19.93,26.72 19.64,26.88 19.35,27.01 19.06,27.15 18.75,27.33 18.44,27.51 18.11,27.73 17.77,27.95 17.36,28.13 16.96,28.31 16.58,28.46 16.20,28.60 15.86,28.80 15.52,29.00 15.21,29.18 14.90,29.36 14.58,29.52 14.26,29.69 14.05,29.84 13.84,30.00 13.64,30.15 13.45,30.31 13.26,30.49 13.07,30.67 12.80,30.84 12.54,31.02 12.38,31.17 12.22,31.32 12.02,31.49 11.82,31.66 11.62,31.80 11.43,31.93 11.22,32.13 11.00,32.32 10.83,32.45 10.67,32.57 10.51,32.73 10.35,32.89 10.17,33.08 9.99,33.26 9.80,33.44 9.61,33.63 9.38,33.86 9.14,34.09 8.87,34.26 8.60,34.44 8.36,34.57 8.13,34.70 7.94,34.78 7.74,34.86 7.54,34.92 7.33,34.98 7.16,34.99 7.00,34.99 6.87,34.99 6.73,34.99 6.64,34.99 6.54,34.98 6.44,34.98 6.34,34.98 6.22,34.97 6.10,34.97 5.97,34.95 5.83,34.94 5.63,34.91 5.43,34.88 5.30,34.84 5.17,34.80 5.08,34.80 4.99,34.80 4.88,34.80 4.77,34.79 4.65,34.77 4.53,34.76 4.39,34.71 4.24,34.67 4.18,34.64 4.13,34.60 4.10,34.60 4.07,34.61 3.94,34.59 3.81,34.57 3.66,34.52 3.51,34.48 3.42,34.43 3.33,34.37 3.25,34.36 3.17,34.34 3.05,34.30 2.93,34.25 2.86,34.25 2.78,34.24 2.63,34.21 2.49,34.17 2.38,34.13 2.27,34.09 2.22,34.09 2.16,34.08 2.02,34.05 1.89,34.02 1.71,33.93 1.53,33.83 1.49,33.77 1.44,33.71 1.38,33.69 1.32,33.68 1.19,33.57 1.05,33.47 0.91,33.37 0.76,33.27 0.65,33.17 0.54,33.06 0.46,32.97 0.37,32.89 0.28,32.81 0.20,32.73 0.04,32.55 -0.12,32.38 -0.16,32.21 -0.21,32.04 -0.20,32.04 -0.20,32.04 -0.26,31.94 -0.33,31.84 -0.35,31.61 -0.38,31.39 -0.40,31.23 -0.41,31.07 -0.44,30.93 -0.46,30.79 -0.53,30.60 -0.60,30.41 -0.66,30.14 -0.73,29.88 -0.75,29.59 -0.77,29.31 -0.82,29.01 -0.86,28.71 -0.86,28.47 -0.86,28.23 -0.85,27.97 -0.84,27.70 -0.83,27.52 -0.82,27.34 -0.78,27.14 -0.75,26.95 -0.71,26.85 -0.67,26.76 -0.67,26.66 -0.67,26.57 -0.66,26.43 -0.64,26.30 -0.61,26.11 -0.57,25.91 -0.53,25.83 -0.49,25.76 -0.49,25.71 -0.49,25.66 -0.47,25.49 -0.46,25.32 -0.41,25.16 -0.36,25.00 -0.32,24.92 -0.27,24.85 -0.26,24.78 -0.26,24.71 -0.21,24.55 -0.15,24.39 -0.07,24.22 0.00,24.05 0.04,23.98 0.08,23.91 0.10,23.77 0.13,23.63 0.18,23.53 0.23,23.43 0.24,23.34 0.25,23.25 0.30,23.03 0.35,22.81 0.44,22.61 0.52,22.41 0.58,22.26 0.64,22.11 0.70,21.91 0.75,21.71 0.87,21.49 0.99,21.27 1.10,21.07 1.21,20.87 1.34,20.66 1.47,20.45 1.56,20.29 1.65,20.13 1.75,19.96 1.86,19.79 1.95,19.67 2.04,19.55 2.15,19.39 2.25,19.23 2.40,19.04 2.55,18.85 2.69,18.75 2.82,18.64 2.89,18.55 2.96,18.46 3.08,18.28 3.21,18.10 3.36,17.93 3.52,17.75 3.65,17.58 3.79,17.40 3.98,17.22 4.16,17.04 4.33,16.89 4.49,16.75 4.74,16.54 4.98,16.33 5.18,16.19 5.38,16.06 5.59,15.89 5.80,15.72 6.07,15.54 6.33,15.37 6.54,15.23 6.76,15.09 6.90,14.94 7.04,14.78 7.27,14.62 7.50,14.47 7.65,14.36 7.80,14.26 7.97,14.17 8.14,14.08 8.27,13.95 8.40,13.82 8.61,13.71 8.83,13.60 8.98,13.52 9.14,13.45 9.29,13.38 9.44,13.31 9.50,13.30 9.56,13.28 9.65,13.22 9.73,13.16 9.82,13.14 9.91,13.11 9.99,13.05 10.08,12.99 10.17,12.96 10.25,12.93 10.34,12.88 10.42,12.82 10.51,12.79 10.59,12.77 10.67,12.71 10.76,12.65 10.83,12.63 10.90,12.61 10.98,12.55 11.06,12.50 11.06,12.52 11.05,12.54 10.92,12.85 10.80,13.16 10.95,13.38 11.10,13.61 11.08,13.62 11.07,13.64 10.88,13.60 10.69,13.57 10.62,13.53 10.55,13.50 10.52,13.50 10.49,13.51 10.37,13.51 10.24,13.51 10.09,13.51 9.93,13.51 9.78,13.51 9.64,13.51 9.44,13.51 9.24,13.51 9.01,13.51 8.79,13.51 8.59,13.51 8.40,13.51 8.18,13.51 7.97,13.51 7.88,13.52 7.80,13.52 7.72,13.52 7.64,13.52 7.56,13.53 7.48,13.53 7.40,13.54 7.33,13.55 7.25,13.56 7.18,13.58 7.01,13.63 6.84,13.68 6.60,13.68 6.36,13.69 6.17,13.69 5.98,13.69 5.76,13.70 5.55,13.70 5.29,13.71 5.04,13.71 4.79,13.73 4.54,13.74 4.30,13.77 4.05,13.79 3.78,13.85 3.50,13.91 3.20,13.94 2.90,13.97 2.57,14.04 2.24,14.10 1.94,14.13 1.64,14.17 1.37,14.24 1.10,14.31 0.77,14.38 0.44,14.45 0.19,14.49 -0.06,14.52 -0.31,14.60 -0.55,14.67 -0.77,14.75 -0.99,14.82 -1.28,14.90 -1.56,14.97 -1.79,15.01 -2.02,15.05 -2.23,15.12 -2.43,15.19 -2.65,15.28 -2.88,15.37 -3.15,15.45 -3.42,15.54 -3.68,15.62 -3.95,15.70 -4.22,15.77 -4.49,15.84 -4.72,15.88 -4.95,15.92 -5.14,16.00 -5.33,16.08 -5.53,16.18 -5.74,16.27 -6.02,16.40 -6.30,16.53 -6.53,16.59 -6.76,16.64 -6.98,16.76 -7.20,16.88 -7.52,16.96 -7.84,17.04 -8.09,17.08 -8.35,17.12 -8.60,17.19 -8.85,17.27 -9.15,17.34 -9.44,17.42 -9.76,17.48 -10.08,17.54 -10.32,17.57 -10.56,17.59 -10.80,17.65 -11.03,17.70 -11.24,17.73 -11.46,17.75 -11.71,17.79 -11.97,17.84 -12.22,17.84 -12.47,17.84 -12.64,17.84 -12.81,17.84 -12.99,17.84 -13.16,17.84 -13.34,17.84 -13.52,17.84 -13.70,17.84 -13.88,17.84 -14.15,17.84 -14.42,17.84 -14.71,17.84 -14.99,17.84 -15.30,17.84 -15.61,17.83 -15.89,17.83 -16.16,17.83 -16.45,17.82 -16.74,17.81 -17.07,17.80 -17.39,17.78 -17.68,17.75 -17.98,17.72 -18.26,17.66 -18.55,17.61 -18.78,17.57 -19.01,17.54 -19.18,17.49 -19.34,17.43 -19.50,17.41 -19.65,17.39 -19.77,17.35 -19.88,17.30 -19.93,17.31 -19.98,17.31 -20.09,17.30 -20.21,17.29 -20.35,17.28 -20.48,17.26 -20.68,17.23 -20.88,17.19 -21.00,17.14 -21.11,17.09 -21.25,17.08 -21.39,17.07 -21.61,17.02 -21.83,16.97 -22.01,16.89 -22.20,16.80 -22.28,16.77 -22.37,16.73 -22.56,16.70 -22.75,16.67 -22.85,16.62 -22.95,16.57 -23.03,16.56 -23.10,16.56 -23.31,16.52 -23.52,16.47 -23.68,16.40 -23.84,16.33 -23.96,16.28 -24.08,16.23 -24.20,16.15 -24.32,16.06 -24.37,16.04 -24.42,16.01 -24.56,15.98 -24.71,15.95 -24.83,15.88 -24.95,15.82 -25.11,15.78 -25.26,15.73 -25.40,15.65 -25.53,15.57 -25.61,15.53 -25.69,15.50 -25.80,15.46 -25.91,15.43 -25.98,15.39 -26.05,15.34 -26.10,15.33 -26.16,15.33 -26.32,15.27 -26.48,15.20 -26.58,15.13 -26.68,15.06 -26.79,15.00 -26.89,14.94 -27.02,14.80 -27.15,14.67 -27.17,14.64 -27.18,14.60 -27.32,14.51 -27.47,14.42 -27.59,14.18 -27.72,13.94 -27.73,13.89 -27.74,13.85 -27.80,13.74 -27.87,13.63 -27.89,13.42 -27.92,13.21 -27.92,13.15 -27.93,13.09 -27.97,12.92 -28.01,12.75 -27.97,12.48 -27.92,12.22 -27.88,12.13 -27.83,12.05 -27.83,11.99 -27.82,11.93 -27.79,11.78 -27.75,11.62 -27.70,11.49 -27.65,11.35 -27.63,11.24 -27.62,11.13 -27.56,10.92 -27.50,10.70 -27.40,10.50 -27.29,10.30 -27.23,10.19 -27.16,10.08 -27.08,9.89 -27.00,9.70 -26.83,9.50 -26.67,9.30 -26.48,9.06 -26.29,8.81 -26.09,8.59 -25.89,8.37 -25.67,8.11 -25.44,7.84 -25.17,7.57 -24.89,7.31 -24.62,7.05 -24.35,6.80 -24.09,6.57 -23.83,6.34 -23.66,6.16 -23.49,5.97 -23.35,5.80 -23.22,5.62 -23.03,5.44 -22.84,5.26 -22.66,5.10 -22.49,4.95 -22.36,4.85 -22.23,4.76 -22.10,4.62 -21.96,4.47 -21.78,4.36 -21.61,4.25 -21.48,4.16 -21.35,4.07 -21.18,3.97 -21.01,3.87 -20.85,3.77 -20.69,3.66 -20.46,3.53 -20.22,3.41 -19.96,3.26 -19.69,3.12 -19.32,2.90 -18.94,2.69 -18.45,2.43 -17.95,2.17 -17.41,1.91 -16.87,1.66 -16.31,1.42 -15.76,1.18 -15.21,0.98 -14.65,0.78 -14.14,0.54 -13.63,0.30 -13.27,0.16 -12.90,0.02 -12.56,-0.07 -12.21,-0.16 -11.81,-0.26 -11.42,-0.35 -10.98,-0.45 -10.55,-0.55 -10.01,-0.66 -9.48,-0.77 -8.93,-0.82 -8.39,-0.87 -7.71,-0.87 -7.03,-0.87 -6.48,-0.87 -5.93,-0.87 -5.34,-0.87 -4.76,-0.87 -4.28,-0.87 -3.80,-0.87 -3.37,-0.87 -2.93,-0.87 -2.58,-0.87 -2.23,-0.87 -2.05,-0.86 -1.87,-0.86 -1.67,-0.86 -1.48,-0.86 -1.35,-0.85 -1.23,-0.85 -1.06,-0.83 -0.90,-0.82 -0.75,-0.79 -0.60,-0.76 -0.50,-0.72 -0.41,-0.69 -0.39,-0.69 -0.36,-0.7 -0.29,-0.7 -0.21,-0.7 -0.15,-0.7 -0.08,-0.7 -0.04,-0.7 4.28,-0.7 4.28,-0.7 L 4.28,-0.7 Z"></path></g></svg>